<svg width="204" height="46" viewBox="0 0 204 46" fill="none" xmlns="http://www.w3.org/2000/svg">
<path d="M80.464 17.16L76.208 35.848C76.1227 36.1893 75.9413 36.4667 75.664 36.68C75.408 36.8933 75.1093 37 74.768 37H73.616C73.296 37 73.008 36.904 72.752 36.712C72.496 36.52 72.3147 36.2747 72.208 35.976L72.08 35.56C71.8027 34.6853 71.4827 33.672 71.12 32.52C70.7787 31.368 70.416 30.1627 70.032 28.904C70.0107 28.8187 69.9573 28.776 69.872 28.776C69.808 28.776 69.7653 28.8187 69.744 28.904C69.4453 29.8427 69.1573 30.7813 68.88 31.72C68.6027 32.6373 68.3467 33.4693 68.112 34.216C67.8987 34.9627 67.7173 35.5493 67.568 35.976C67.4827 36.2533 67.3013 36.4987 67.024 36.712C66.768 36.904 66.48 37 66.16 37H64.976C64.6347 37 64.3253 36.8933 64.048 36.68C63.792 36.4667 63.632 36.1893 63.568 35.848L59.312 17.16C59.2267 16.7333 59.312 16.3173 59.568 15.912C59.7387 15.7413 59.92 15.6133 60.112 15.528C60.304 15.4213 60.5173 15.368 60.752 15.368H61.648C61.9893 15.368 62.288 15.4747 62.544 15.688C62.8213 15.9013 63.0027 16.168 63.088 16.488L65.68 28.072C65.7013 28.136 65.7547 28.168 65.84 28.168C65.9253 28.168 65.9893 28.136 66.032 28.072C66.032 28.072 66.096 27.8373 66.224 27.368C66.3733 26.8987 66.5653 26.28 66.8 25.512C67.0347 24.7227 67.3013 23.848 67.6 22.888C67.8987 21.928 68.1973 20.9573 68.496 19.976C68.6027 19.6773 68.7733 19.432 69.008 19.24C69.2427 19.0267 69.5307 18.92 69.872 18.92C70.2347 18.92 70.5333 19.0267 70.768 19.24C71.024 19.432 71.1947 19.688 71.28 20.008L73.744 28.072C73.7867 28.136 73.8507 28.168 73.936 28.168C74.0213 28.168 74.0747 28.136 74.096 28.072C74.3733 26.8133 74.6507 25.5653 74.928 24.328C75.2053 23.0907 75.4613 21.9387 75.696 20.872C75.952 19.8053 76.1653 18.888 76.336 18.12C76.5067 17.352 76.624 16.808 76.688 16.488C76.7733 16.168 76.944 15.9013 77.2 15.688C77.4773 15.4747 77.7867 15.368 78.128 15.368H79.024C79.2587 15.368 79.472 15.4213 79.664 15.528C79.856 15.6133 80.0267 15.7413 80.176 15.912C80.4747 16.296 80.5707 16.712 80.464 17.16ZM86.9013 35.528C86.9013 35.9333 86.7519 36.2853 86.4533 36.584C86.1759 36.8613 85.8346 37 85.4293 37H84.5653C84.1599 37 83.8079 36.8613 83.5093 36.584C83.2319 36.2853 83.0933 35.9333 83.0933 35.528V16.84C83.0933 16.4133 83.2319 16.0613 83.5093 15.784C83.8079 15.5067 84.1599 15.368 84.5653 15.368H85.4293C85.8346 15.368 86.1759 15.5067 86.4533 15.784C86.7519 16.0613 86.9013 16.4133 86.9013 16.84V35.528ZM103.387 35.528C103.387 35.9333 103.237 36.2853 102.939 36.584C102.661 36.8613 102.331 37 101.947 37H90.9388C90.5548 37 90.2134 36.8613 89.9148 36.584C89.6374 36.2853 89.4988 35.9333 89.4988 35.528V16.84C89.4988 16.4133 89.6374 16.0613 89.9148 15.784C90.2134 15.5067 90.5548 15.368 90.9388 15.368H91.8348C92.2401 15.368 92.5814 15.5067 92.8588 15.784C93.1574 16.0613 93.3068 16.4133 93.3068 16.84V32.808C93.3068 33.0853 93.4348 33.224 93.6908 33.224H101.947C102.331 33.224 102.661 33.3627 102.939 33.64C103.237 33.9173 103.387 34.2693 103.387 34.696V35.528ZM120.176 32.776C120.176 33.544 119.984 34.248 119.6 34.888C119.216 35.528 118.704 36.04 118.064 36.424C117.424 36.808 116.72 37 115.952 37H107.408C107.003 37 106.651 36.8613 106.352 36.584C106.075 36.2853 105.936 35.9333 105.936 35.528V16.84C105.936 16.4133 106.075 16.0613 106.352 15.784C106.651 15.5067 107.003 15.368 107.408 15.368H115.952C116.72 15.368 117.424 15.56 118.064 15.944C118.704 16.328 119.216 16.84 119.6 17.48C119.984 18.12 120.176 18.8347 120.176 19.624V32.776ZM116.368 32.776V19.624C116.368 19.3253 116.23 19.176 115.952 19.176H110.192C109.915 19.176 109.776 19.3147 109.776 19.592V32.808C109.776 33.0853 109.915 33.224 110.192 33.224H115.952C116.059 33.224 116.155 33.1813 116.24 33.096C116.326 32.9893 116.368 32.8827 116.368 32.776ZM151.339 17.16L147.083 35.848C146.998 36.1893 146.816 36.4667 146.539 36.68C146.283 36.8933 145.984 37 145.643 37H144.491C144.171 37 143.883 36.904 143.627 36.712C143.371 36.52 143.19 36.2747 143.083 35.976L142.955 35.56C142.678 34.6853 142.358 33.672 141.995 32.52C141.654 31.368 141.291 30.1627 140.907 28.904C140.886 28.8187 140.832 28.776 140.747 28.776C140.683 28.776 140.64 28.8187 140.619 28.904C140.32 29.8427 140.032 30.7813 139.755 31.72C139.478 32.6373 139.222 33.4693 138.987 34.216C138.774 34.9627 138.592 35.5493 138.443 35.976C138.358 36.2533 138.176 36.4987 137.899 36.712C137.643 36.904 137.355 37 137.035 37H135.851C135.51 37 135.2 36.8933 134.923 36.68C134.667 36.4667 134.507 36.1893 134.443 35.848L130.187 17.16C130.102 16.7333 130.187 16.3173 130.443 15.912C130.614 15.7413 130.795 15.6133 130.987 15.528C131.179 15.4213 131.392 15.368 131.627 15.368H132.523C132.864 15.368 133.163 15.4747 133.419 15.688C133.696 15.9013 133.878 16.168 133.963 16.488L136.555 28.072C136.576 28.136 136.63 28.168 136.715 28.168C136.8 28.168 136.864 28.136 136.907 28.072C136.907 28.072 136.971 27.8373 137.099 27.368C137.248 26.8987 137.44 26.28 137.675 25.512C137.91 24.7227 138.176 23.848 138.475 22.888C138.774 21.928 139.072 20.9573 139.371 19.976C139.478 19.6773 139.648 19.432 139.883 19.24C140.118 19.0267 140.406 18.92 140.747 18.92C141.11 18.92 141.408 19.0267 141.643 19.24C141.899 19.432 142.07 19.688 142.155 20.008L144.619 28.072C144.662 28.136 144.726 28.168 144.811 28.168C144.896 28.168 144.95 28.136 144.971 28.072C145.248 26.8133 145.526 25.5653 145.803 24.328C146.08 23.0907 146.336 21.9387 146.571 20.872C146.827 19.8053 147.04 18.888 147.211 18.12C147.382 17.352 147.499 16.808 147.563 16.488C147.648 16.168 147.819 15.9013 148.075 15.688C148.352 15.4747 148.662 15.368 149.003 15.368H149.899C150.134 15.368 150.347 15.4213 150.539 15.528C150.731 15.6133 150.902 15.7413 151.051 15.912C151.35 16.296 151.446 16.712 151.339 17.16ZM168.592 32.776C168.592 33.544 168.4 34.248 168.016 34.888C167.632 35.528 167.12 36.04 166.48 36.424C165.84 36.808 165.136 37 164.368 37H158.224C157.456 37 156.742 36.808 156.08 36.424C155.44 36.04 154.928 35.528 154.544 34.888C154.16 34.248 153.968 33.544 153.968 32.776V19.624C153.968 18.8347 154.16 18.12 154.544 17.48C154.928 16.84 155.44 16.328 156.08 15.944C156.742 15.56 157.456 15.368 158.224 15.368H164.368C165.136 15.368 165.84 15.56 166.48 15.944C167.12 16.328 167.632 16.84 168.016 17.48C168.4 18.12 168.592 18.8347 168.592 19.624V32.776ZM164.784 32.776V19.624C164.784 19.3253 164.646 19.176 164.368 19.176H158.224C158.118 19.176 158.011 19.2187 157.904 19.304C157.819 19.3893 157.776 19.496 157.776 19.624V32.776C157.776 32.8827 157.819 32.9893 157.904 33.096C158.011 33.1813 158.118 33.224 158.224 33.224H164.368C164.475 33.224 164.571 33.1813 164.656 33.096C164.742 32.9893 164.784 32.8827 164.784 32.776ZM185.842 32.776C185.842 33.544 185.65 34.248 185.266 34.888C184.882 35.528 184.37 36.04 183.73 36.424C183.09 36.808 182.386 37 181.618 37H175.474C174.706 37 173.992 36.808 173.33 36.424C172.69 36.04 172.178 35.528 171.794 34.888C171.41 34.248 171.218 33.544 171.218 32.776V19.624C171.218 18.8347 171.41 18.12 171.794 17.48C172.178 16.84 172.69 16.328 173.33 15.944C173.992 15.56 174.706 15.368 175.474 15.368H181.618C182.386 15.368 183.09 15.56 183.73 15.944C184.37 16.328 184.882 16.84 185.266 17.48C185.65 18.12 185.842 18.8347 185.842 19.624V32.776ZM182.034 32.776V19.624C182.034 19.3253 181.896 19.176 181.618 19.176H175.474C175.368 19.176 175.261 19.2187 175.154 19.304C175.069 19.3893 175.026 19.496 175.026 19.624V32.776C175.026 32.8827 175.069 32.9893 175.154 33.096C175.261 33.1813 175.368 33.224 175.474 33.224H181.618C181.725 33.224 181.821 33.1813 181.906 33.096C181.992 32.9893 182.034 32.8827 182.034 32.776ZM202.676 32.776C202.676 33.544 202.484 34.248 202.1 34.888C201.716 35.528 201.204 36.04 200.564 36.424C199.924 36.808 199.22 37 198.452 37H189.908C189.503 37 189.151 36.8613 188.852 36.584C188.575 36.2853 188.436 35.9333 188.436 35.528V16.84C188.436 16.4133 188.575 16.0613 188.852 15.784C189.151 15.5067 189.503 15.368 189.908 15.368H198.452C199.22 15.368 199.924 15.56 200.564 15.944C201.204 16.328 201.716 16.84 202.1 17.48C202.484 18.12 202.676 18.8347 202.676 19.624V32.776ZM198.868 32.776V19.624C198.868 19.3253 198.73 19.176 198.452 19.176H192.692C192.415 19.176 192.276 19.3147 192.276 19.592V32.808C192.276 33.0853 192.415 33.224 192.692 33.224H198.452C198.559 33.224 198.655 33.1813 198.74 33.096C198.826 32.9893 198.868 32.8827 198.868 32.776Z" fill="white"/>
<path d="M22.5004 21.9774C15.5211 21.9774 5.62562 33.2794 5.62562 40.4136C5.62562 43.6267 7.98194 45.5463 11.9308 45.5463C16.2234 45.5463 19.0578 43.2373 22.5004 43.2373C25.973 43.2373 28.8153 45.5463 33.0701 45.5463C37.0189 45.5463 39.3753 43.6267 39.3753 40.4136C39.3753 33.2794 29.4798 21.9774 22.5004 21.9774ZM9.55604 20.8164C8.64199 17.6263 5.826 15.5604 3.26666 16.2012C0.707308 16.8419 -0.625979 19.9473 0.288074 23.1374C1.20213 26.3275 4.01811 28.3935 6.57746 27.7527C9.13681 27.1119 10.4701 24.0065 9.55604 20.8164ZM17.0021 18.9033C19.7214 18.1539 21.0819 14.3055 20.0413 10.308C19.0007 6.3105 15.9527 3.67833 13.2333 4.42775C10.514 5.17717 9.15351 9.02553 10.1941 13.023C11.2347 17.0205 14.2836 19.6536 17.0021 18.9033ZM41.7333 16.2021C39.174 15.5613 36.3589 17.6273 35.444 20.8174C34.5299 24.0074 35.8632 27.1128 38.4225 27.7536C40.9819 28.3944 43.797 26.3284 44.7119 23.1383C45.626 19.9482 44.2927 16.8429 41.7333 16.2021ZM27.9988 18.9033C30.7181 19.6527 33.7661 17.0205 34.8068 13.023C35.8474 9.02553 34.4868 5.17809 31.7675 4.42775C29.0482 3.67741 26.0002 6.3105 24.9596 10.308C23.919 14.3055 25.2795 18.1539 27.9988 18.9033Z" fill="white"/>
</svg>
